<svg width="21" height="24" viewBox="0 0 21 24" fill="none" xmlns="http://www.w3.org/2000/svg">
<path d="M19.7723 16.8758C18.4602 15.27 17.5339 14.4525 17.5339 10.0253C17.5339 5.97102 15.4636 4.52662 13.7596 3.82512C13.5333 3.73213 13.3202 3.51856 13.2513 3.28608C12.9524 2.26882 12.1144 1.37265 11.0006 1.37265C9.88678 1.37265 9.04835 2.26933 8.75252 3.28711C8.68354 3.52213 8.47048 3.73213 8.24414 3.82512C6.53814 4.52765 4.4699 5.96694 4.4699 10.0253C4.46734 14.4525 3.54103 15.27 2.22896 16.8758C1.68533 17.541 2.16151 18.5399 3.11236 18.5399H18.894C19.8397 18.5399 20.3128 17.538 19.7723 16.8758Z" stroke="white" stroke-width="2" stroke-linecap="round" stroke-linejoin="round"/>
<path d="M14.2704 18.5399V19.3574C14.2704 20.2247 13.9259 21.0564 13.3126 21.6696C12.6994 22.2828 11.8677 22.6274 11.0004 22.6274C10.1332 22.6274 9.30145 22.2828 8.68822 21.6696C8.07498 21.0564 7.73047 20.2247 7.73047 19.3574V18.5399" stroke="white" stroke-width="2" stroke-linecap="round" stroke-linejoin="round"/>
</svg>
